<svg id="Capa_1" data-name="Capa 1" xmlns="http://www.w3.org/2000/svg" viewBox="0 0 512 512"><defs><style>.cls-1{fill:#1ae9d3;}</style></defs><path class="cls-1" d="M128,32V0H16A16,16,0,0,0,0,16V128H32V54.56L180.64,203.2l22.56-22.56L54.56,32Z"/><path class="cls-1" d="M496,0H384V32h73.44L308.8,180.64l22.56,22.56L480,54.56V128h32V16A16,16,0,0,0,496,0Z"/><path class="cls-1" d="M480,457.44,331.36,308.8,308.8,331.36,457.44,480H384v32H496a16,16,0,0,0,16-16V384H480Z"/><path class="cls-1" d="M180.64,308.64,32,457.44V384H0V496a16,16,0,0,0,16,16H128V480H54.56L203.2,331.36Z"/></svg>